<?xml version="1.0" encoding="UTF-8"?>
<svg xmlns="http://www.w3.org/2000/svg" version="1.1" width="200" height="200" viewBox="0 0 200 200"><rect x="0" y="0" width="200" height="200" fill="#ffffff"/><g transform="scale(9.524)"><g transform="translate(0,0)"><path fill-rule="evenodd" d="M9 0L9 1L8 1L8 3L9 3L9 4L8 4L8 8L6 8L6 9L4 9L4 8L3 8L3 9L2 9L2 8L0 8L0 9L2 9L2 10L3 10L3 9L4 9L4 10L6 10L6 11L8 11L8 12L6 12L6 13L8 13L8 15L9 15L9 17L8 17L8 18L10 18L10 17L11 17L11 18L12 18L12 19L13 19L13 20L11 20L11 19L8 19L8 21L9 21L9 20L10 20L10 21L13 21L13 20L15 20L15 19L13 19L13 18L12 18L12 16L13 16L13 17L15 17L15 18L17 18L17 19L16 19L16 20L17 20L17 19L19 19L19 18L20 18L20 20L21 20L21 15L20 15L20 14L18 14L18 13L20 13L20 12L21 12L21 11L20 11L20 10L21 10L21 9L20 9L20 8L18 8L18 9L17 9L17 8L14 8L14 9L13 9L13 10L12 10L12 11L11 11L11 10L9 10L9 9L11 9L11 8L13 8L13 4L12 4L12 3L13 3L13 2L12 2L12 1L13 1L13 0L11 0L11 2L12 2L12 3L11 3L11 4L12 4L12 5L11 5L11 6L10 6L10 7L9 7L9 4L10 4L10 0ZM11 6L11 7L12 7L12 6ZM8 8L8 9L6 9L6 10L8 10L8 11L9 11L9 12L10 12L10 13L9 13L9 14L10 14L10 15L14 15L14 16L15 16L15 17L16 17L16 16L17 16L17 17L18 17L18 18L19 18L19 17L20 17L20 16L17 16L17 15L16 15L16 14L15 14L15 13L16 13L16 12L17 12L17 13L18 13L18 12L19 12L19 11L17 11L17 9L16 9L16 10L15 10L15 9L14 9L14 10L15 10L15 11L16 11L16 12L15 12L15 13L14 13L14 12L13 12L13 11L12 11L12 12L10 12L10 11L9 11L9 10L8 10L8 9L9 9L9 8ZM0 10L0 13L1 13L1 12L3 12L3 13L4 13L4 12L5 12L5 11L1 11L1 10ZM12 12L12 13L10 13L10 14L12 14L12 13L13 13L13 12ZM15 15L15 16L16 16L16 15ZM0 0L0 7L7 7L7 0ZM1 1L1 6L6 6L6 1ZM2 2L2 5L5 5L5 2ZM14 0L14 7L21 7L21 0ZM15 1L15 6L20 6L20 1ZM16 2L16 5L19 5L19 2ZM0 14L0 21L7 21L7 14ZM1 15L1 20L6 20L6 15ZM2 16L2 19L5 19L5 16Z" fill="#000000"/></g></g></svg>
