<?xml version="1.0" standalone="no"?>
<!DOCTYPE svg PUBLIC "-//W3C//DTD SVG 20010904//EN"
 "http://www.w3.org/TR/2001/REC-SVG-20010904/DTD/svg10.dtd">
<svg version="1.0" xmlns="http://www.w3.org/2000/svg"
 width="158.000000pt" height="107.000000pt" viewBox="0 0 158.000000 107.000000"
 preserveAspectRatio="xMidYMid meet">

<g transform="translate(0.000000,107.000000) scale(0.100000,-0.100000)"
fill="#000000" stroke="none">
<path d="M769 1027 c-33 -19 -37 -27 -42 -70 -8 -88 -74 -147 -164 -147 -30 0
-67 7 -83 15 -26 13 -32 13 -71 -4 l-42 -19 44 -21 c24 -12 55 -31 69 -44 21
-19 34 -23 86 -21 87 3 181 62 220 137 17 31 31 34 51 10 13 -16 14 -9 9 55
-4 41 -12 84 -18 95 -7 12 -11 25 -10 30 3 12 -11 7 -49 -16z"/>
<path d="M551 954 c-12 -15 -21 -30 -21 -34 0 -4 9 -19 21 -34 26 -33 62 -34
88 0 19 24 19 29 6 54 -24 47 -63 53 -94 14z"/>
<path d="M1224 764 c-17 -13 -48 -30 -70 -37 -60 -21 -88 -79 -89 -182 0 -65
4 -87 23 -118 30 -52 29 -68 -6 -61 -67 13 -246 -96 -229 -140 4 -9 11 -16 17
-16 6 0 8 5 4 12 -4 7 -3 8 5 4 9 -6 9 -11 0 -22 -13 -16 -5 -45 13 -42 7 2
21 16 33 32 49 70 139 95 215 61 37 -17 39 -17 79 6 39 21 41 25 41 68 -1 40
-5 48 -32 66 -63 40 -89 108 -74 189 6 33 51 89 90 111 13 8 17 20 14 51 l-3
42 -31 -24z"/>
<path d="M470 636 c0 -2 7 -7 16 -10 8 -3 12 -2 9 4 -6 10 -25 14 -25 6z"/>
<path d="M470 610 c0 -5 6 -10 13 -10 7 0 8 -3 2 -8 -5 -4 -10 -29 -11 -57 -1
-63 -24 -107 -69 -135 -30 -19 -35 -27 -35 -61 l0 -39 53 30 c30 16 61 30 69
30 36 0 85 134 73 198 -9 49 -14 55 -31 41 -12 -10 -13 -9 -8 5 3 9 1 16 -5
16 -6 0 -11 -5 -11 -10 0 -7 -6 -7 -20 0 -14 7 -20 7 -20 0z"/>
<path d="M360 588 c0 -6 -3 -8 -6 -5 -7 7 -44 -30 -44 -43 0 -20 44 -60 65
-60 31 0 68 46 55 69 -16 32 -70 61 -70 39z"/>
<path d="M1215 575 c-31 -30 -31 -46 -2 -73 28 -27 58 -28 80 -4 23 25 21 58
-3 82 -26 26 -46 25 -75 -5z"/>
<path d="M779 225 c-4 -31 4 -132 12 -145 6 -11 8 -6 9 18 0 41 25 102 41 102
7 0 9 3 6 6 -4 4 -13 1 -21 -5 -11 -10 -17 -7 -30 11 -9 12 -17 18 -17 13z"/>
<path d="M998 203 c-28 -33 -29 -43 -8 -73 25 -34 59 -39 83 -12 23 25 21 58
-3 82 -25 25 -52 26 -72 3z"/>
<path d="M880 75 c-11 -13 -10 -14 4 -9 9 3 16 10 16 15 0 13 -6 11 -20 -6z"/>
<path d="M834 44 c-18 -14 -18 -15 4 -4 12 6 22 13 22 15 0 8 -5 6 -26 -11z"/>
</g>
</svg>
