<?xml version="1.0" encoding="UTF-8"?>
<svg xmlns="http://www.w3.org/2000/svg" version="1.1" width="500" height="500" viewBox="0 0 500 500"><rect x="0" y="0" width="500" height="500" fill="#ffffff"/><g transform="scale(20)"><g transform="translate(0,0)"><path fill-rule="evenodd" d="M8 0L8 1L9 1L9 2L8 2L8 5L9 5L9 4L11 4L11 5L10 5L10 10L6 10L6 9L7 9L7 8L6 8L6 9L5 9L5 10L3 10L3 9L4 9L4 8L0 8L0 9L2 9L2 10L1 10L1 13L3 13L3 14L4 14L4 15L2 15L2 14L1 14L1 15L0 15L0 16L1 16L1 15L2 15L2 17L7 17L7 16L5 16L5 15L9 15L9 16L10 16L10 17L11 17L11 16L12 16L12 17L13 17L13 16L12 16L12 14L13 14L13 15L14 15L14 18L13 18L13 21L15 21L15 20L16 20L16 21L17 21L17 22L18 22L18 23L17 23L17 24L18 24L18 25L20 25L20 23L21 23L21 24L22 24L22 25L25 25L25 24L23 24L23 23L24 23L24 22L25 22L25 21L23 21L23 23L22 23L22 22L21 22L21 21L22 21L22 17L25 17L25 15L24 15L24 14L25 14L25 12L23 12L23 10L25 10L25 8L24 8L24 9L23 9L23 8L20 8L20 9L19 9L19 10L18 10L18 12L17 12L17 13L16 13L16 11L15 11L15 12L14 12L14 14L13 14L13 12L12 12L12 13L11 13L11 11L14 11L14 8L13 8L13 6L14 6L14 7L15 7L15 9L18 9L18 8L17 8L17 4L16 4L16 3L17 3L17 0L16 0L16 2L14 2L14 0L12 0L12 1L11 1L11 0L10 0L10 1L9 1L9 0ZM11 2L11 4L12 4L12 3L13 3L13 2ZM12 5L12 6L11 6L11 8L12 8L12 6L13 6L13 5ZM15 5L15 7L16 7L16 5ZM8 6L8 7L9 7L9 6ZM8 8L8 9L9 9L9 8ZM11 9L11 10L12 10L12 9ZM20 9L20 11L19 11L19 13L17 13L17 15L18 15L18 16L20 16L20 15L21 15L21 17L22 17L22 16L23 16L23 14L24 14L24 13L23 13L23 14L22 14L22 15L21 15L21 14L19 14L19 13L20 13L20 11L21 11L21 9ZM22 9L22 10L23 10L23 9ZM5 10L5 11L6 11L6 12L7 12L7 13L5 13L5 12L4 12L4 11L2 11L2 12L3 12L3 13L4 13L4 14L7 14L7 13L8 13L8 12L9 12L9 11L8 11L8 12L7 12L7 11L6 11L6 10ZM10 13L10 16L11 16L11 13ZM14 14L14 15L15 15L15 19L16 19L16 14ZM8 17L8 18L9 18L9 19L10 19L10 18L9 18L9 17ZM17 17L17 20L20 20L20 17ZM18 18L18 19L19 19L19 18ZM23 18L23 19L24 19L24 20L25 20L25 18ZM11 19L11 20L12 20L12 19ZM9 20L9 21L8 21L8 25L12 25L12 24L16 24L16 22L14 22L14 23L11 23L11 24L10 24L10 22L11 22L11 21L10 21L10 20ZM9 21L9 22L10 22L10 21ZM19 21L19 22L20 22L20 21ZM18 23L18 24L19 24L19 23ZM0 0L0 7L7 7L7 0ZM1 1L1 6L6 6L6 1ZM2 2L2 5L5 5L5 2ZM18 0L18 7L25 7L25 0ZM19 1L19 6L24 6L24 1ZM20 2L20 5L23 5L23 2ZM0 18L0 25L7 25L7 18ZM1 19L1 24L6 24L6 19ZM2 20L2 23L5 23L5 20Z" fill="#000000"/></g></g></svg>
