<?xml version="1.0" encoding="UTF-8"?>
<svg xmlns="http://www.w3.org/2000/svg" version="1.1" width="200" height="200" viewBox="0 0 200 200"><rect x="0" y="0" width="200" height="200" fill="#ffffff"/><g transform="scale(8)"><g transform="translate(0,0)"><path fill-rule="evenodd" d="M9 0L9 1L8 1L8 3L9 3L9 4L8 4L8 8L6 8L6 9L7 9L7 10L4 10L4 8L3 8L3 9L2 9L2 8L0 8L0 9L1 9L1 10L0 10L0 12L1 12L1 14L0 14L0 15L1 15L1 16L0 16L0 17L2 17L2 16L3 16L3 17L5 17L5 16L6 16L6 17L7 17L7 16L6 16L6 15L8 15L8 16L9 16L9 17L8 17L8 19L10 19L10 18L12 18L12 17L13 17L13 18L14 18L14 17L13 17L13 16L15 16L15 19L14 19L14 20L12 20L12 19L11 19L11 21L10 21L10 20L9 20L9 21L8 21L8 22L10 22L10 24L9 24L9 23L8 23L8 25L10 25L10 24L11 24L11 21L12 21L12 24L13 24L13 25L14 25L14 24L15 24L15 25L17 25L17 24L18 24L18 25L20 25L20 24L19 24L19 23L17 23L17 22L16 22L16 21L19 21L19 22L20 22L20 23L21 23L21 24L22 24L22 23L23 23L23 21L24 21L24 20L25 20L25 17L24 17L24 18L23 18L23 16L24 16L24 15L25 15L25 12L23 12L23 13L22 13L22 12L21 12L21 14L22 14L22 15L20 15L20 16L17 16L17 15L19 15L19 14L20 14L20 13L19 13L19 9L21 9L21 8L18 8L18 9L16 9L16 11L17 11L17 15L16 15L16 16L15 16L15 15L14 15L14 14L15 14L15 13L14 13L14 12L15 12L15 11L13 11L13 10L12 10L12 9L15 9L15 8L16 8L16 7L17 7L17 6L16 6L16 4L15 4L15 3L16 3L16 0L14 0L14 1L13 1L13 0L12 0L12 1L11 1L11 2L9 2L9 1L10 1L10 0ZM14 1L14 2L13 2L13 3L12 3L12 4L9 4L9 5L10 5L10 6L9 6L9 7L10 7L10 8L8 8L8 9L9 9L9 10L7 10L7 11L3 11L3 10L2 10L2 14L1 14L1 15L2 15L2 14L3 14L3 16L5 16L5 15L6 15L6 14L8 14L8 13L11 13L11 14L10 14L10 17L9 17L9 18L10 18L10 17L11 17L11 16L12 16L12 15L13 15L13 14L14 14L14 13L13 13L13 12L12 12L12 10L11 10L11 11L9 11L9 10L10 10L10 8L11 8L11 9L12 9L12 6L13 6L13 8L14 8L14 6L15 6L15 7L16 7L16 6L15 6L15 5L14 5L14 2L15 2L15 1ZM11 5L11 6L10 6L10 7L11 7L11 6L12 6L12 5ZM22 8L22 9L24 9L24 10L23 10L23 11L25 11L25 9L24 9L24 8ZM17 10L17 11L18 11L18 10ZM7 11L7 12L6 12L6 13L7 13L7 12L8 12L8 11ZM3 12L3 13L4 13L4 14L5 14L5 13L4 13L4 12ZM23 13L23 15L22 15L22 16L23 16L23 15L24 15L24 13ZM11 14L11 15L12 15L12 14ZM17 17L17 20L20 20L20 17ZM18 18L18 19L19 19L19 18ZM21 18L21 19L23 19L23 20L21 20L21 22L22 22L22 21L23 21L23 20L24 20L24 19L23 19L23 18ZM15 19L15 21L13 21L13 22L14 22L14 23L16 23L16 22L15 22L15 21L16 21L16 19ZM24 22L24 23L25 23L25 22ZM23 24L23 25L25 25L25 24ZM0 0L0 7L7 7L7 0ZM1 1L1 6L6 6L6 1ZM2 2L2 5L5 5L5 2ZM18 0L18 7L25 7L25 0ZM19 1L19 6L24 6L24 1ZM20 2L20 5L23 5L23 2ZM0 18L0 25L7 25L7 18ZM1 19L1 24L6 24L6 19ZM2 20L2 23L5 23L5 20Z" fill="#000000"/></g></g></svg>
