<?xml version="1.0" encoding="UTF-8"?>
<svg xmlns="http://www.w3.org/2000/svg" version="1.1" width="200" height="200" viewBox="0 0 200 200"><rect x="0" y="0" width="200" height="200" fill="#ffffff"/><g transform="scale(8)"><g transform="translate(0,0)"><path fill-rule="evenodd" d="M8 0L8 4L10 4L10 3L11 3L11 4L12 4L12 2L11 2L11 0ZM12 0L12 1L14 1L14 3L13 3L13 4L14 4L14 5L16 5L16 4L17 4L17 3L16 3L16 4L15 4L15 1L16 1L16 2L17 2L17 0ZM9 2L9 3L10 3L10 2ZM8 5L8 7L9 7L9 8L10 8L10 7L11 7L11 6L12 6L12 8L11 8L11 9L9 9L9 10L4 10L4 9L7 9L7 8L4 8L4 9L2 9L2 8L0 8L0 11L1 11L1 12L0 12L0 14L1 14L1 12L2 12L2 13L3 13L3 11L7 11L7 12L6 12L6 13L7 13L7 12L8 12L8 13L9 13L9 12L8 12L8 11L9 11L9 10L11 10L11 11L10 11L10 13L11 13L11 15L9 15L9 14L8 14L8 15L7 15L7 14L5 14L5 12L4 12L4 14L3 14L3 15L2 15L2 16L0 16L0 17L2 17L2 16L4 16L4 17L5 17L5 16L6 16L6 17L8 17L8 18L9 18L9 19L8 19L8 21L10 21L10 24L9 24L9 23L8 23L8 25L10 25L10 24L13 24L13 23L12 23L12 21L13 21L13 20L12 20L12 19L13 19L13 18L14 18L14 20L15 20L15 18L14 18L14 17L13 17L13 15L14 15L14 16L15 16L15 17L16 17L16 21L17 21L17 23L18 23L18 25L19 25L19 24L22 24L22 25L25 25L25 24L24 24L24 22L25 22L25 21L23 21L23 19L22 19L22 18L23 18L23 16L24 16L24 15L23 15L23 14L24 14L24 13L25 13L25 12L24 12L24 11L23 11L23 10L24 10L24 9L25 9L25 8L21 8L21 9L20 9L20 8L19 8L19 9L20 9L20 10L19 10L19 11L18 11L18 10L17 10L17 8L16 8L16 7L17 7L17 6L16 6L16 7L15 7L15 6L14 6L14 8L16 8L16 9L14 9L14 10L13 10L13 5L11 5L11 6L10 6L10 7L9 7L9 5ZM1 9L1 10L2 10L2 9ZM11 9L11 10L12 10L12 9ZM22 9L22 10L23 10L23 9ZM16 10L16 11L13 11L13 12L11 12L11 13L14 13L14 15L15 15L15 16L19 16L19 15L21 15L21 14L23 14L23 13L21 13L21 12L22 12L22 11L21 11L21 12L20 12L20 13L17 13L17 14L16 14L16 15L15 15L15 13L16 13L16 11L17 11L17 12L18 12L18 11L17 11L17 10ZM20 13L20 14L21 14L21 13ZM17 14L17 15L18 15L18 14ZM4 15L4 16L5 16L5 15ZM6 15L6 16L7 16L7 15ZM11 15L11 16L12 16L12 15ZM8 16L8 17L10 17L10 16ZM17 17L17 20L20 20L20 17ZM21 17L21 18L22 18L22 17ZM10 18L10 19L11 19L11 18ZM18 18L18 19L19 19L19 18ZM24 19L24 20L25 20L25 19ZM11 20L11 21L12 21L12 20ZM21 20L21 21L20 21L20 23L23 23L23 22L21 22L21 21L22 21L22 20ZM14 21L14 23L15 23L15 25L16 25L16 22L15 22L15 21ZM0 0L0 7L7 7L7 0ZM1 1L1 6L6 6L6 1ZM2 2L2 5L5 5L5 2ZM18 0L18 7L25 7L25 0ZM19 1L19 6L24 6L24 1ZM20 2L20 5L23 5L23 2ZM0 18L0 25L7 25L7 18ZM1 19L1 24L6 24L6 19ZM2 20L2 23L5 23L5 20Z" fill="#000000"/></g></g></svg>
