<svg xmlns="http://www.w3.org/2000/svg" xmlns:xlink="http://www.w3.org/1999/xlink" width="238" zoomAndPan="magnify" viewBox="0 0 178.5 43.499998" height="58" preserveAspectRatio="xMidYMid meet" version="1.0"><defs><g/></defs><path fill="#ffde00" d="M 32.839844 10.113281 C 32.855469 11.679688 34.414062 12.933594 36.320312 12.914062 C 38.230469 12.894531 39.761719 11.605469 39.746094 10.042969 C 39.730469 8.476562 38.167969 7.222656 36.261719 7.242188 C 34.355469 7.261719 32.824219 8.546875 32.839844 10.113281 Z M 29.597656 4.765625 C 29.597656 4.765625 47.75 -6.023438 58.253906 8.355469 C 53.539062 5.65625 48.453125 8.027344 43.070312 13.761719 C 43.070312 13.761719 44.058594 4.046875 29.597656 4.765625 " fill-opacity="1" fill-rule="nonzero"/><path fill="#039be5" d="M 56.300781 9.398438 C 54.734375 9.414062 53.480469 10.972656 53.503906 12.878906 C 53.523438 14.789062 54.808594 16.320312 56.375 16.304688 C 57.9375 16.289062 59.191406 14.730469 59.171875 12.820312 C 59.152344 10.914062 57.867188 9.382812 56.300781 9.398438 Z M 61.648438 6.15625 C 61.648438 6.15625 72.4375 24.308594 58.058594 34.8125 C 60.757812 30.097656 58.386719 25.011719 52.652344 19.628906 C 52.652344 19.628906 62.367188 20.617188 61.648438 6.15625 " fill-opacity="1" fill-rule="nonzero"/><path fill="#ffde00" d="M 57.015625 32.859375 C 57 31.292969 55.441406 30.039062 53.535156 30.0625 C 51.625 30.082031 50.09375 31.367188 50.109375 32.933594 C 50.125 34.5 51.6875 35.75 53.59375 35.730469 C 55.5 35.710938 57.035156 34.425781 57.015625 32.859375 Z M 60.257812 38.207031 C 60.257812 38.207031 42.105469 48.996094 31.601562 34.617188 C 36.320312 37.316406 41.402344 34.945312 46.785156 29.210938 C 46.785156 29.210938 45.796875 38.925781 60.257812 38.207031 " fill-opacity="1" fill-rule="nonzero"/><path fill="#039be5" d="M 33.554688 33.574219 C 35.121094 33.558594 36.375 32 36.355469 30.09375 C 36.332031 28.183594 35.046875 26.652344 33.484375 26.667969 C 31.917969 26.683594 30.664062 28.246094 30.683594 30.152344 C 30.703125 32.058594 31.988281 33.59375 33.554688 33.574219 Z M 28.207031 36.816406 C 28.207031 36.816406 17.417969 18.664062 31.796875 8.160156 C 29.097656 12.875 31.46875 17.960938 37.203125 23.34375 C 37.203125 23.34375 27.488281 22.355469 28.207031 36.816406 " fill-opacity="1" fill-rule="nonzero"/><g fill="#ffffff" fill-opacity="1"><g transform="translate(77.66189, 32.755549)"><g><path d="M 21.078125 -6.65625 C 21.078125 -4.394531 20.238281 -2.664062 18.5625 -1.46875 C 16.882812 -0.269531 14.425781 0.328125 11.1875 0.328125 C 8.21875 0.328125 5.890625 -0.191406 4.203125 -1.234375 C 2.523438 -2.285156 1.445312 -3.878906 0.96875 -6.015625 L 5.640625 -6.78125 C 5.953125 -5.5625 6.566406 -4.675781 7.484375 -4.125 C 8.410156 -3.570312 9.6875 -3.296875 11.3125 -3.296875 C 14.6875 -3.296875 16.375 -4.320312 16.375 -6.375 C 16.375 -7.03125 16.179688 -7.570312 15.796875 -8 C 15.410156 -8.425781 14.863281 -8.78125 14.15625 -9.0625 C 13.445312 -9.351562 12.09375 -9.695312 10.09375 -10.09375 C 8.375 -10.5 7.171875 -10.820312 6.484375 -11.0625 C 5.804688 -11.3125 5.195312 -11.601562 4.65625 -11.9375 C 4.113281 -12.269531 3.648438 -12.671875 3.265625 -13.140625 C 2.878906 -13.617188 2.578125 -14.171875 2.359375 -14.796875 C 2.148438 -15.429688 2.046875 -16.160156 2.046875 -16.984375 C 2.046875 -19.078125 2.828125 -20.675781 4.390625 -21.78125 C 5.960938 -22.894531 8.25 -23.453125 11.25 -23.453125 C 14.113281 -23.453125 16.265625 -23 17.703125 -22.09375 C 19.140625 -21.195312 20.066406 -19.71875 20.484375 -17.65625 L 15.78125 -17.015625 C 15.539062 -18.015625 15.050781 -18.765625 14.3125 -19.265625 C 13.582031 -19.765625 12.53125 -20.015625 11.15625 -20.015625 C 8.21875 -20.015625 6.75 -19.097656 6.75 -17.265625 C 6.75 -16.660156 6.90625 -16.164062 7.21875 -15.78125 C 7.53125 -15.40625 7.992188 -15.082031 8.609375 -14.8125 C 9.222656 -14.539062 10.460938 -14.207031 12.328125 -13.8125 C 14.546875 -13.332031 16.132812 -12.894531 17.09375 -12.5 C 18.050781 -12.101562 18.804688 -11.640625 19.359375 -11.109375 C 19.921875 -10.578125 20.347656 -9.941406 20.640625 -9.203125 C 20.929688 -8.460938 21.078125 -7.613281 21.078125 -6.65625 Z M 21.078125 -6.65625 "/></g></g><g transform="translate(100.05778, 32.755549)"><g><path d="M 2.25 0 L 2.25 -23.09375 L 7.078125 -23.09375 L 7.078125 0 Z M 2.25 0 "/></g></g><g transform="translate(109.386668, 32.755549)"><g><path d="M 21.078125 -6.65625 C 21.078125 -4.394531 20.238281 -2.664062 18.5625 -1.46875 C 16.882812 -0.269531 14.425781 0.328125 11.1875 0.328125 C 8.21875 0.328125 5.890625 -0.191406 4.203125 -1.234375 C 2.523438 -2.285156 1.445312 -3.878906 0.96875 -6.015625 L 5.640625 -6.78125 C 5.953125 -5.5625 6.566406 -4.675781 7.484375 -4.125 C 8.410156 -3.570312 9.6875 -3.296875 11.3125 -3.296875 C 14.6875 -3.296875 16.375 -4.320312 16.375 -6.375 C 16.375 -7.03125 16.179688 -7.570312 15.796875 -8 C 15.410156 -8.425781 14.863281 -8.78125 14.15625 -9.0625 C 13.445312 -9.351562 12.09375 -9.695312 10.09375 -10.09375 C 8.375 -10.5 7.171875 -10.820312 6.484375 -11.0625 C 5.804688 -11.3125 5.195312 -11.601562 4.65625 -11.9375 C 4.113281 -12.269531 3.648438 -12.671875 3.265625 -13.140625 C 2.878906 -13.617188 2.578125 -14.171875 2.359375 -14.796875 C 2.148438 -15.429688 2.046875 -16.160156 2.046875 -16.984375 C 2.046875 -19.078125 2.828125 -20.675781 4.390625 -21.78125 C 5.960938 -22.894531 8.25 -23.453125 11.25 -23.453125 C 14.113281 -23.453125 16.265625 -23 17.703125 -22.09375 C 19.140625 -21.195312 20.066406 -19.71875 20.484375 -17.65625 L 15.78125 -17.015625 C 15.539062 -18.015625 15.050781 -18.765625 14.3125 -19.265625 C 13.582031 -19.765625 12.53125 -20.015625 11.15625 -20.015625 C 8.21875 -20.015625 6.75 -19.097656 6.75 -17.265625 C 6.75 -16.660156 6.90625 -16.164062 7.21875 -15.78125 C 7.53125 -15.40625 7.992188 -15.082031 8.609375 -14.8125 C 9.222656 -14.539062 10.460938 -14.207031 12.328125 -13.8125 C 14.546875 -13.332031 16.132812 -12.894531 17.09375 -12.5 C 18.050781 -12.101562 18.804688 -11.640625 19.359375 -11.109375 C 19.921875 -10.578125 20.347656 -9.941406 20.640625 -9.203125 C 20.929688 -8.460938 21.078125 -7.613281 21.078125 -6.65625 Z M 21.078125 -6.65625 "/></g></g><g transform="translate(131.782558, 32.755549)"><g><path d="M 18.578125 0 L 16.53125 -5.90625 L 7.71875 -5.90625 L 5.671875 0 L 0.84375 0 L 9.265625 -23.09375 L 14.96875 -23.09375 L 23.359375 0 Z M 12.109375 -19.546875 L 12.015625 -19.1875 C 11.910156 -18.789062 11.78125 -18.335938 11.625 -17.828125 C 11.46875 -17.328125 10.523438 -14.566406 8.796875 -9.546875 L 15.4375 -9.546875 L 13.171875 -16.1875 L 12.453125 -18.40625 Z M 12.109375 -19.546875 "/></g></g></g></svg>